<svg width="64" height="64" viewBox="0 0 64 64" fill="none" xmlns="http://www.w3.org/2000/svg">
<rect x="48" y="16" width="48" height="48" transform="rotate(90 48 16)" fill="#FF9839"/>
<path fill-rule="evenodd" clip-rule="evenodd" d="M11.134 64L14.4663 64L-2.85034e-07 49.5337L-5.76372e-07 52.8662L11.134 64ZM-1.27971e-06 60.9114L3.0885 64L-1.54972e-06 64L-1.27971e-06 60.9114ZM4.18297e-07 41.4885L22.5118 64L25.8441 64L7.09638e-07 38.1559L4.18297e-07 41.4885ZM1.41297e-06 30.1107L33.8896 64L37.2218 64L1.70432e-06 26.7782L1.41297e-06 30.1107ZM2.40765e-06 18.7329L45.2673 64L48.5997 64L2.69899e-06 15.4004L2.40765e-06 18.7329ZM3.40233e-06 7.35516L56.645 64L59.9775 64L3.69367e-06 4.02261L3.40233e-06 7.35516ZM4.0229 -6.79309e-06L64 59.9773L64 56.6448L7.35517 -6.50177e-06L4.0229 -6.79309e-06ZM15.4007 -5.79841e-06L64 48.5995L64 45.2671L18.7329 -5.50709e-06L15.4007 -5.79841e-06ZM26.7785 -4.80373e-06L64 37.2218L64 33.8893L30.1107 -4.51242e-06L26.7785 -4.80373e-06ZM38.1562 -3.80905e-06L64 25.8441L64 22.5115L41.4885 -3.51774e-06L38.1562 -3.80905e-06ZM49.5339 -2.81439e-06L64 14.4663L64 11.1337L52.8664 -2.52305e-06L49.5339 -2.81439e-06ZM60.9117 -1.81971e-06L64 3.0885L64 -1.54972e-06L60.9117 -1.81971e-06Z" fill="#577A46"/>
</svg>
