<svg width="100" height="100" viewBox="0 0 100 100" fill="none" xmlns="http://www.w3.org/2000/svg">
<rect x="25" y="75" width="75" height="75" transform="rotate(-90 25 75)" fill="#FF9839"/>
<path fill-rule="evenodd" clip-rule="evenodd" d="M82.6031 0H77.3964L100 22.6036V17.3966L82.6031 0ZM100 4.82587L95.1742 0H100V4.82587ZM100 35.1742L64.8253 0H59.6187L100 40.3813V35.1742ZM100 52.952L47.0476 0H41.8409L100 58.1591V52.952ZM100 70.7298L29.2698 0H24.0629L100 75.9369V70.7298ZM100 88.5076L11.4922 0H6.28516L100 93.7147V88.5076ZM93.7142 100L0 6.28547V11.4925L88.5076 100H93.7142ZM75.9364 100L0 24.0632V29.2702L70.7298 100H75.9364ZM58.1587 100L0 41.8409V47.048L52.952 100H58.1587ZM40.3809 100L0 59.6187V64.8258L35.1742 100H40.3809ZM22.6033 100L0 77.3964V82.6036L17.3963 100H22.6033ZM4.82551 100L0 95.1742V100H4.82551Z" fill="#577A46"/>
</svg>
