<svg width="64" height="64" viewBox="0 0 64 64" fill="none" xmlns="http://www.w3.org/2000/svg">
<rect x="16" y="48" width="48" height="48" transform="rotate(-90 16 48)" fill="#FF9839"/>
<path fill-rule="evenodd" clip-rule="evenodd" d="M52.866 0H49.5337L64 14.4663V11.1338L52.866 0ZM64 3.08855L60.9115 0H64V3.08855ZM64 22.5115L41.4882 0H38.1559L64 25.8441V22.5115ZM64 33.8893L30.1104 0H26.7782L64 37.2218V33.8893ZM64 45.2671L18.7327 0H15.4003L64 48.5996V45.2671ZM64 56.6448L7.35499 0H4.0225L64 59.9774V56.6448ZM59.9771 64L0 4.0227V7.35522L56.6448 64H59.9771ZM48.5993 64L0 15.4005V18.7329L45.2671 64H48.5993ZM37.2215 64L0 26.7782V30.1107L33.8893 64H37.2215ZM25.8438 64L0 38.1559V41.4885L22.5115 64H25.8438ZM14.4661 64L0 49.5337V52.8663L11.1336 64H14.4661ZM3.08833 64L0 60.9115V64H3.08833Z" fill="#577A46"/>
</svg>
